<?xml version="1.0" encoding="UTF-8"?>
<svg id="Layer_2" data-name="Layer 2" xmlns="http://www.w3.org/2000/svg" viewBox="0 0 583 227.78">
  <defs>
    <style>
      .cls-1, .cls-2 {
        fill: #fff;
      }

      .cls-2 {
        fill-rule: evenodd;
      }
    </style>
  </defs>
  <g id="Layer_1-2" data-name="Layer 1">
    <g>
      <path class="cls-2" d="M113.56,217.94c13.51-7.4,24.39-18.52,30.08-31.96h0s.02-.02.02-.02c2.79-6.61,8.58-20.3,3.53-35.66-7.66-23.25-33.53-30.52-56.37-36.94h-.05c-18.39-5.18-35.76-10.06-39.35-20.89-1.77-5.4-.25-12.62,4.56-21.45l12.75-20.97,5.38-8.86,39.16,65.36,10.39-6.22,7.86-4.7L74.22,0l-5.38,8.86-31.18,51.32-.23.4c-7.85,14.31-9.94,27.28-6.22,38.56,7.12,21.57,30.83,28.23,53.77,34.68h.04c19.46,5.46,37.82,10.63,41.94,23.12,2.56,7.77-.86,15.85-2.91,20.7l-.02.05c-3.92,9.25-11.89,17.02-21.77,22.15-9.25,4.79-20.17,7.29-31.06,6.53-1.19-.08-29.24-2.28-42.94-25.35-9.13-15.39-9.21-35-1.18-52.21-1.13-.87-2.25-1.84-3.33-2.93-4.54-4.55-7.78-10.3-9.71-17.2-16.9,25.65-18.91,58.23-4.06,83.21l.12.19c19.05,31.81,55.53,35.22,59.64,35.51,1.79.12,3.56.18,5.35.18,13.67,0,27.02-3.58,38.47-9.84Z"/>
      <g>
        <path class="cls-1" d="M197.32,149.69c-5.28-2.39-9.46-5.65-12.54-9.75-3.08-4.1-4.77-8.64-5.06-13.62h20.65c.39,3.12,1.94,5.71,4.61,7.77,2.69,2.06,6.03,3.08,10.03,3.08s6.95-.77,9.15-2.34c2.2-1.57,3.3-3.57,3.3-6.01,0-2.63-1.35-4.61-4.04-5.93-2.69-1.33-6.95-2.75-12.82-4.32-6.06-1.47-11.01-2.98-14.88-4.55-3.85-1.57-7.18-3.96-9.97-7.18-2.79-3.22-4.18-7.56-4.18-13.05,0-4.49,1.28-8.6,3.87-12.31,2.59-3.71,6.3-6.65,11.13-8.79,4.83-2.14,10.52-3.22,17.06-3.22,9.66,0,17.39,2.43,23.16,7.26,5.77,4.83,8.93,11.36,9.52,19.55h-19.63c-.29-3.22-1.63-5.79-4.04-7.69-2.39-1.9-5.59-2.85-9.6-2.85-3.71,0-6.56.69-8.56,2.06-2,1.37-3,3.28-3,5.71,0,2.73,1.37,4.81,4.1,6.24,2.73,1.43,6.99,2.85,12.74,4.32,5.85,1.47,10.7,2.98,14.52,4.55,3.81,1.57,7.12,3.98,9.89,7.26,2.79,3.28,4.22,7.6,4.32,12.97,0,4.69-1.3,8.89-3.87,12.6-2.59,3.71-6.3,6.63-11.13,8.73-4.83,2.1-10.48,3.14-16.92,3.14s-12.6-1.2-17.88-3.59l.06-.02Z"/>
        <path class="cls-1" d="M277.18,70.79v81.19h-20.51v-81.19h20.51ZM258.06,57.68c-2.39-2.28-3.59-5.16-3.59-8.56s1.2-6.28,3.59-8.56c2.39-2.3,5.4-3.45,9.01-3.45s6.63,1.14,9.01,3.45c2.39,2.3,3.59,5.16,3.59,8.56s-1.2,6.28-3.59,8.56c-2.39,2.3-5.4,3.45-9.01,3.45s-6.63-1.14-9.01-3.45Z"/>
        <path class="cls-1" d="M350.52,98.42c-2-3.57-4.65-6.28-7.91-8.13-3.28-1.86-6.81-2.79-10.62-2.79s-7.2.96-10.48,2.85c-3.28,1.9-5.91,4.67-7.91,8.28-2,3.61-3,7.87-3,12.74s1,9.13,3,12.74c2,3.61,4.63,6.38,7.91,8.28,3.26,1.9,6.77,2.85,10.48,2.85s7.34-.98,10.62-2.94c3.28-1.96,5.91-4.73,7.91-8.36,2-3.61,3-7.91,3-12.89s-1-9.11-3-12.68v.04ZM321.51,73.22c4.63-2.49,9.93-3.73,15.9-3.73,6.93,0,13.21,1.71,18.84,5.14,5.63,3.43,10.05,8.28,13.33,14.58,3.28,6.3,4.91,13.6,4.91,21.92s-1.63,15.66-4.91,22.06c-3.28,6.4-7.73,11.36-13.33,14.86-5.63,3.53-11.89,5.28-18.84,5.28-5.95,0-11.21-1.22-15.76-3.67-4.55-2.45-8.24-5.53-11.07-9.24v50.26h-20.51v-119.86h20.51v11.72c2.63-3.71,6.28-6.81,10.91-9.3l.02-.02Z"/>
        <path class="cls-1" d="M442.55,98.42c-2-3.57-4.65-6.28-7.91-8.13-3.28-1.86-6.81-2.79-10.62-2.79s-7.2.96-10.48,2.85c-3.28,1.9-5.91,4.67-7.91,8.28-2,3.61-3,7.87-3,12.74s1,9.13,3,12.74c2,3.61,4.63,6.38,7.91,8.28,3.26,1.9,6.77,2.85,10.48,2.85s7.34-.98,10.62-2.94c3.28-1.96,5.91-4.73,7.91-8.36,2-3.61,3-7.91,3-12.89s-1-9.11-3-12.68v.04ZM413.54,73.22c4.63-2.49,9.93-3.73,15.9-3.73,6.93,0,13.21,1.71,18.84,5.14,5.63,3.43,10.05,8.28,13.33,14.58,3.28,6.3,4.91,13.6,4.91,21.92s-1.63,15.66-4.91,22.06c-3.28,6.4-7.73,11.36-13.33,14.86-5.63,3.53-11.89,5.28-18.84,5.28-5.95,0-11.21-1.22-15.76-3.67-4.55-2.45-8.24-5.53-11.07-9.24v50.26h-20.51v-119.86h20.51v11.72c2.63-3.71,6.28-6.81,10.91-9.3l.02-.02Z"/>
        <rect class="cls-1" x="474.13" y="43.53" width="20.51" height="108.44"/>
        <path class="cls-1" d="M561.76,103.76c-.1-5.28-2-9.5-5.71-12.68-3.71-3.18-8.26-4.77-13.62-4.77-5.08,0-9.36,1.53-12.82,4.61-3.47,3.08-5.59,7.36-6.38,12.82h38.53v.02ZM582.41,117.54h-59.35c.49,5.85,2.55,10.46,6.16,13.78,3.61,3.32,8.05,4.97,13.33,4.97,7.63,0,13.05-3.26,16.27-9.83h22.12c-2.34,7.81-6.83,14.23-13.48,19.27-6.65,5.04-14.8,7.54-24.47,7.54-7.81,0-14.82-1.73-21.02-5.2-6.2-3.47-11.05-8.38-14.52-14.72-3.47-6.34-5.2-13.68-5.2-21.98s1.71-15.78,5.14-22.12c3.43-6.34,8.22-11.23,14.35-14.66,6.16-3.43,13.23-5.14,21.24-5.14s14.62,1.67,20.73,4.97c6.1,3.32,10.85,8.03,14.21,14.15,3.36,6.12,5.06,13.11,5.06,21.02,0,2.94-.2,5.57-.59,7.91v.02Z"/>
      </g>
    </g>
  </g>
</svg>